<?xml version="1.0" encoding="utf-8"?>
<!-- Generator: Adobe Illustrator 23.1.0, SVG Export Plug-In . SVG Version: 6.00 Build 0)  -->
<svg version="1.1" id="Layer_1" xmlns="http://www.w3.org/2000/svg" xmlns:xlink="http://www.w3.org/1999/xlink" x="0px" y="0px"
	 viewBox="0 0 128 77.5" style="enable-background:new 0 0 128 77.5;" xml:space="preserve">
<style type="text/css">
	.st0{fill:#FFFFFF;stroke:#00388A;stroke-width:2;stroke-miterlimit:10;}
	.st1{fill:#00388A;}
</style>
<g>
	<path class="st0" d="M83.9,17.1c0,0-6.5-4.1-20.5-4.1c0,0,0,0,0,0c0,0,0,0,0,0c-14,0-20.5,4.1-20.5,4.1s-3.3,17,1.1,29.3
		c3.4,9.3,18,17.2,19.4,18c1.4-0.7,16-8.6,19.4-18C87.2,34.1,83.9,17.1,83.9,17.1z"/>
	<path class="st1" d="M54.7,34.1l8.3-7.2l-1-1.5l-8.8,7.7L54.7,34.1z M57.3,17.9c-0.3,0.3-0.3,0.7,0,1c0.2,0.2,0.5,0.3,0.8,0.2
		l-0.8,6.1l-5.4-1.6c0.2-0.3,0.1-0.6-0.1-0.8c-0.3-0.3-0.8-0.3-1.1,0c-0.3,0.3-0.3,0.7,0,1c0.2,0.2,0.6,0.3,0.9,0.1l1.4,5l-6.6,0.4
		c0.1-0.2,0-0.5-0.2-0.7c-0.3-0.3-0.8-0.3-1.1,0c-0.3,0.3-0.3,0.7,0,1c0.3,0.3,0.8,0.3,1.1,0c0,0,0.1,0,0.1-0.1l6.5,3.5l8.8-7.7
		l-3.4-6.2c0,0,0.1,0,0.1-0.1c0.3-0.3,0.3-0.7,0-1C58.1,17.6,57.6,17.6,57.3,17.9z"/>
	<path class="st1" d="M67,42.6v8.3H56V35.3l8.2-7.3h15.9v6.6H67v2h13.2v6H67z"/>
	<rect x="56" y="51.6" class="st1" width="11" height="1.2"/>
</g>
</svg>
