<?xml version="1.0" encoding="utf-8"?>
<!-- Generator: Adobe Illustrator 23.1.0, SVG Export Plug-In . SVG Version: 6.00 Build 0)  -->
<svg version="1.1" id="Capa_2" xmlns="http://www.w3.org/2000/svg" xmlns:xlink="http://www.w3.org/1999/xlink" x="0px" y="0px"
	 viewBox="0 0 125 92.5" style="enable-background:new 0 0 125 92.5;" xml:space="preserve">
<style type="text/css">
	.st0{fill:#FFFFFF;stroke:#00388A;stroke-width:2;stroke-miterlimit:10;}
	.st1{fill:#00388A;}
</style>
<path class="st0" d="M85.1,21.4c0,0-7-4.8-22.1-4.8c0,0,0,0,0,0c0,0,0,0,0,0c-15.1,0-22.1,4.8-22.1,4.8S37.2,41.3,42,55.8
	C45.6,66.7,61.4,76,63,76.8c1.5-0.9,17.3-10.1,21-21.1C88.7,41.3,85.1,21.4,85.1,21.4z"/>
<path class="st1" d="M53.5,41.3l8.9-8.4l-1.1-1.8l-9.5,9L53.5,41.3z M56.4,22.3c-0.3,0.3-0.3,0.8,0,1.2c0.2,0.2,0.5,0.3,0.8,0.2
	l-0.8,7.1l-5.8-1.9c0.2-0.3,0.2-0.7-0.1-1c-0.3-0.3-0.8-0.3-1.2,0c-0.3,0.3-0.3,0.8,0,1.2c0.3,0.3,0.7,0.3,1,0.2l1.6,5.9l-7.2,0.5
	c0.1-0.3,0-0.6-0.2-0.8c-0.3-0.3-0.8-0.3-1.2,0c-0.3,0.3-0.3,0.8,0,1.2c0.3,0.3,0.8,0.3,1.2,0c0,0,0.1-0.1,0.1-0.1l7.1,4.1l9.5-9
	l-3.7-7.3c0,0,0.1-0.1,0.1-0.1c0.3-0.3,0.3-0.8,0-1.2C57.2,22,56.7,22,56.4,22.3z"/>
<path class="st1" d="M66.8,51.3v9.7H54.9V42.8l8.9-8.6h17.2V42H66.8v2.3h14.3v7H66.8z"/>
<rect x="54.9" y="61.9" class="st1" width="11.9" height="1.4"/>
</svg>
